<?xml version="1.0" encoding="UTF-8"?>
<svg id="Layer_1" data-name="Layer 1" xmlns="http://www.w3.org/2000/svg" version="1.1" viewBox="0 0 256 256">
  <defs>
    <style>
      .cls-1 {
        fill: #fff;
      }

      .cls-1, .cls-2 {
        isolation: isolate;
        opacity: .2;
        stroke-width: 0px;
      }

      .cls-2 {
        fill: #341084;
      }
    </style>
  </defs>
  <path class="cls-1" d="M137.6,194.6c1.1-.7,2.2-1.4,3.4-2,3.7-1.8,7.5-3.6,11.2-5.3,0-.3-.2-.5-.3-.8-14.3,7.7-29.5,10.3-45.6,8.4,8.7,2.2,17.4,1.8,26.2.5-8.7,2.8-17.6,2.4-26.5,1.9,6.4.7,12.9,1.5,19.3,1,6.2-.5,12.2-2.4,18.3-3.6-3.9,1.4-7.8,3.3-11.8,4-6.8,1.2-13.7,1.5-19.3,2.1,8.1,1,17.6,1.1,26.6-1.8,14.5-4.7,27-12.4,35.2-26.1,5.3-8.9,9.5-18,10.7-28.3.6-5.8,1-11.7,1.4-17.5h.7v21.8c5.9-20.6-4.5-47.5-21.2-55.8,8.2,9.9,13.4,18.5,14.5,24.5-6.4-12.5-14.3-22.8-28.1-28,.8,1.1,1.2,1.7,1.9,2.7-14.9-6.9-27.9-3-40.4,5.2,1.8-.9,3.5-1.7,5.3-2.6-20.5,14.1-23,30.5-6.9,49.8-3.2-3.1-6.4-6.2-8.3-9.9-1.9-3.6-2.5-7.9-3.5-11.1-1.9,14,12.1,27.6,26,26.4,16-1.4,21.8-14.4,17.5-25.1-2.5-6.2-8.2-9.6-14.7-8.7-4.7.6-7.3,3.8-9.4,8.1.3-4.9,3.1-8,7.8-9.2,4-1,8.2-1.3,11.6,1.3,3.1,2.3,5.5,5.4,7.8,7.8,0,.5,0,.2,0,0-2.7-10.5-17.4-14.8-25.4-7.3-6,5.7-4.7,15.5,2.5,18.3,3.2,1.2,6.1.7,8.5-1.8,2.2-2.3,2.1-4.9.4-7.5.9.6,1.8,1.3,2.6,1.9.2-.2.4-.4.6-.6-1.3-1.4-2.3-3.5-3.9-4.1-1.8-.6-4.3-.3-6.1.5-.9.4-1.5,2.9-1.2,4.1.3,1.1,2.3,2.4,3.4,2.3,2-.2,1.3-1.8.7-3.1-.2-.4,0-.9-.1-1.3,3.5,1.9,4.2,3.7,2.6,6-1.9,2.7-4.5,2.4-7.1-.1-2.5-2.4-3.8-5.1-2.2-8.2,1.8-3.4,4.7-5.5,8.8-5.6,7.4,0,14.2,9,12.3,16.2-2,7.4-9.3,13.1-17,13.4-8,.3-15.9-5.4-19.8-14.2-6.4-14.3,3.2-32.8,19.3-37.4,1.3-.4,2.6-.7,4.6-1.2-1.8-.2-2.9-.3-4.9-.5,9.1-2.4,16.9-.8,24.9.9-3.2-1.1-6.4-2.1-9.5-3.2,1.1-.2,2.3-.2,3.3.2,4.8,2,9.5,4.5,14.4,6.2,6.4,2.2,10.9,6.5,14.4,11.8,5.5,8.2,7.5,17.6,7.9,27.4v-14.4c.3,1,.7,1.8.8,2.5,2.9,14.1,1.1,27.5-5.6,40.3-4.5,8.6-11.5,14.9-19,20.7-.7.2-1.5.2-2.2.5-5.8,2.5-11.6,5-17.4,7.5v.2ZM140.7,150c.7-1.1,1.4-2.4,2.2-3.4,3.8-4.4,6.1-9.4,5.9-15.3,0-1.4-.7-2.7-1-4.1-.3,0-.6,0-.9,0,1.9,4,1,8-.8,11.5-1.8,3.3-4,6.7-6.9,9.2-2.8,2.4-6.7,3.7-10.8,5.8,3.6-1,6.4-1.8,9.2-2.6-1.1.7-2.2,1.6-3.4,2-12.3,4.4-22.9,1.2-32.2-7.5,0-.4.3-.8.5-1.5,4.2,3.7,8.4,7.3,14,8.2-15.3-7.8-17-13.7-19.2-23.7-3.7-16.8,6.3-33.9,23.7-40.1,5.8-2.1,12.2-2.5,16.7-3.4-17.5-2.1-30.5,7.3-40.4,22.6,4-8.4,9.2-15.8,17.1-21.1,7.1-4.7,15.6-5.9,23.7-6.5,6.6-.5,13.8.2,19.9,2.5,12.5,4.7,22.5,13,28.4,25.5,1.3,2.8,2.5,5.6,3.6,8.5,3.2,8.4,4,17.2,3.9,26.1.3-2.3.5-4.6.6-6.9.4-8.9-.8-17.7-4.2-25.8-6.4-15-17.7-25.1-33.3-30.3-11.7-3.9-23.3-4-34.9.4-13.2,5.1-23.4,13.3-28.5,26.9-.2.6-.2,1.3-.3,1.9,1.2-1,1.8-2.2,2.4-3.4.6-1.1,1.2-2.1,1.8-3.2-6,13.7-8.7,27,1.3,40.1q-1.1,1,0,2.4c7.9,9.4,18.1,13.8,30.1,12.1,14.1-2,26.4-14.9,22.7-31.7-1.5-6.8-6.7-12.4-12.1-13.2l.5.5c13.3,8.3,14.9,25.4,3.1,35.9-.7.6-1.8.8-2.7,1.2l.3.3ZM87.6,129.8c-.5-1-1.2-1.9-1.4-2.9-1.3-7.3-.2-14.5,1.6-21.7,4-16.6,14-27.5,29.8-33.4,7.8-2.9,15.9-4.1,24.2-4.1-4.1-.2-8.2-.5-12.2,0-4.1.4-8,1.5-12.1,2.2-.4,0-1-.5-1.5-.8,8.1-2.1,16.2-4.6,24.8-3.8-.7.2-1.5.3-2.8.6,8.4.9,15.8,1.4,23.3,4.8,13.5,6.1,24.8,14.3,33,26.4,2.9,4.2,4.9,9.1,7.2,13.7l-.6.3c-2.8-4.8-5.7-9.7-8.5-14.5l-.6.3c2.2,4.4,4.5,8.7,6.7,13.1-.2,0-.4.2-.6.3-1.3-2.2-2.5-4.5-3.8-6.7.6,2.6,1.7,4.8,2.6,7.1.9,2.3,1.7,4.6,2.5,6.9-6.6-13.8-12.7-23-19.5-27.7,1.3,1.8,2.3,3.3,3.4,4.7,12.3,16.7,16.8,35.3,13.8,55.7,0,.4-.2.8-.3,1.2h-.4v-5.4c-1.7,6.8-3.6,14.5-5.5,22.2-.3,0-.6-.1-.9-.2-.2-.4-.4-.7-.8-1.4-.5.9-.7,1.8-1.2,2.5-4.5,6.6-8.4,13.8-13.7,19.6-4.2,4.6-9.9,8.3-15.6,11-5.9,2.8-12.5,4.1-18.8,5.8-4.8,1.3-9.7,2.2-14.6,3.2,0-.3,0-.5-.2-.8,15.2-3.8,29.8-8.9,41.4-20-11.5,7-23.3,13.2-36.7,15.5-13.4,2.3-26.9,2.6-40.2-2.5,5.5.7,10.7,1.3,15.9,1.9-9.2-2.3-18.3-4.6-27.2-9.5,1.6-.1,2.6-.2,4.1-.3-2.4-1.3-4.4-2.3-6.2-3.4-7.2-4.6-14.1-9.5-19.4-16.6-7.5-9.9-10.5-21.5-14.5-32.9-2.7-7.9-3.8-16.2-3.9-24.7,1.1,5.6,2.2,11.1,3.3,16.6-3.7-22.8-1.3-44.7,8.6-65.6-9.6,14.4-14.2,30.5-15.1,47.6v-12.5c-1.8,11.4-1.7,21.8,0,32.3.7,4.2,1.6,8.4,2.5,12.7-4.7-9.4-5.6-19.6-7.1-29.8-1.5,19.8,4,37.3,16.1,52.6-2.7-6.9-5.6-13.9-8.4-21,.4.6.8,1.1,1.1,1.7,5.8,13.5,13.5,25.7,25.3,34.9,0,0,0,.3,0,.8-1.9-1.2-3.6-2.3-5.3-3.4-.2.3-.3.5-.5.8,4.2,3.1,8.3,6.4,12.8,9.2s9.3,5.1,14,7.6c0,.1,0,.3-.2.4-4.8-2-9.6-4-14.3-6,0,.2-.2.5-.3.7,6,2.8,11.9,5.6,17.9,8.5,0,.2,0,.3-.2.5-4.8-1.8-9.5-3.6-14.3-5.4,4.9,3,9.8,6.1,15.1,8.2,5.2,2.2,10.8,3.9,16.3,4.9,5.8,1,11.8.9,17.7,1.3v.2h-16.7c1.5.7,3.1.9,4.7,1,12.8,1,25.4.1,37.4-4.9,15.2-6.4,27.6-16.3,37.7-29.4.3-.4.5-.8.8-1.1,5.2-3.7,8-9,10.2-14.8,3.7-9.8,5.2-19.9,5.4-30.3-.6,8.2-1.1,16.3-1.7,25.2,1-4.8,1.8-8.9,2.7-13h.3c-.2,2.6-.4,5.1-.6,7.7,2.7-9.8,2.4-19.8,1.6-29.8.9,4.1,1.5,8.1,1.7,12.2.2,3.9,0,7.9,0,12.6,2.8-13.9,1.3-27-2.9-39.2-5.5-15.8-16.8-28.1-30.4-37.4-12.2-8.4-26.4-11.3-41.3-9.8-2,.2-4.1,0-6.2,0v-.9c7.3-.4,14.6-.9,21.4-1.3-21.7-4.5-46.3,7-53.6,19.8,7.1-4.2,14.6-8.7,22.8-13.6-.4,1.8-.5,2.2-.6,2.7-.4,0-1-.3-1.3,0-11.5,7.1-23.9,13.2-27.6,28-1.4,5.7-3.7,11.3-4.6,17.1-2.7,16.7,1.7,31,15.4,41.8,1.2.9,2.5,1.7,3.7,2.6.2-.2.4-.5.6-.7-10-7.8-16.8-17.4-18.7-30.1,1.2,2,2.1,4.3,3.2,6.3.7,1.4,1.8,2.6,2.8,3.8,2.8,6.7,7.6,11.8,13.5,15.8,3.4,2.4,7.5,3.9,11.2,5.7.2-.4.5-.8.7-1.2-10.8-3.4-18.6-10.2-23.5-20.3-4.9-10.2-4.4-20.8-2.2-31.5-2.9,7.6-4.3,15.3-1.9,23.3l.3.4ZM195.7,186.7c.6-2.5,1.3-5.1,1.9-7.6-1.3.7-1.7,1.7-2.4,2.6-4.7,6.3-8.6,13.6-14.4,18.7-7.1,6.1-15.6,10.7-23.9,15.2-13.8,7.4-28.8,9.9-44.5,9.8,6.4-1.1,12.5-2.1,18.6-3.1-24,3.6-46.9.2-69.1-10.4.3.5.3.8.5.8,1,.6,1.9,1.2,3,1.7,19.9,10.3,40.9,15.4,63.3,13.1,20.5-2.1,38.5-10.2,53.6-24.2,4.6-4.2,8.2-9.5,12.2-14.3-2.4,4.3-4.8,8.7-7.3,13.2,13.1-13.4,22.4-33.6,20.5-47-.4,1.8-.7,3.5-1.1,5.1-2.3,9.4-5.4,18.4-11,26.4h0ZM89.7,151.4c-.2-.6-.3-1.3-.6-1.8-5.3-7.4-8.8-15.5-9.9-24.5-.2-1.5-.3-3-.3-4.4v-4.3c-2,12.4,1.4,23.3,8.7,33.2-.8,0-1.7-.1-2.5-.2-1.7-2.5-3.7-4.9-5-7.6-3.8-7.5-5.2-15.6-6.2-23.9.4,5.7.8,11.4,1.2,17.1-3.5-11.3-4.1-22.4-.4-33.9,7.6-23.6,23.8-37.6,47.4-43.7,3.3-.9,6.7-1.5,10.1-2,3.3-.5,6.6-.7,10.9-1.1-11.8-1.4-22.9-.3-32.4,3.7-23.4,9.7-36.5,28.2-40,53.4-.8,5.5-1,11-1.5,16.5h-.7v-21c-6.2,21.6,5.7,47.4,19.6,55-4.7-5.4-8.4-10.9-10.3-17.5,6.4,8.5,12.9,16.8,23.7,21.8-1.3-1.7-2.1-2.6-2.8-3.6,3.5,1.4,7.1,2.7,10.4,4.4,5.1,2.6,9.9-.4,14.9-.2,9.8.4,18.2-3,25.1-9.9,1.2-1.2,2.8-2,4-3.2s2.1-2.6,3.2-3.9c-7.4,12.5-18.6,19-32.9,20.3,8.9,1.1,16.6-2.6,23.7-6.8,11.9-6.9,18.9-26.5,15-39.7-1.9-6.5-7-13.2-11.3-14.9.3.4.6.8.9,1.3-4.4-2.8-8.8-5.5-14.3-5.7,10,3.1,16.9,9,20.2,19.2,4.5,13.9-.6,24.8-11.1,33.5-7.1,5.9-16.7,7-26,6.3-5.1-.4-10.1-2.1-15.3-3.2,1.3.8,2.4,1.4,3.6,2.1-7.3-2-13.8-5.3-19-10.7h0ZM208.9,88.7c-.2.3-.4.5-.6.8-5.5-9.6-13.9-16.4-22.2-23.4,3.5,2.2,7,4.4,10.9,6.9-11.3-12.5-35.4-21.8-49.7-19.4,10.8,1.2,20.8,3.5,30,8.6-1,0-2-.2-3-.4s-2-.3-2.9-.4c.3.7.7,1,1.1,1.2,13.1,5.3,23,14.3,30.7,25.8.3.5.7.9.9,1.4l7.5,20.7c4,10.9,6,23.4,5.2,29.3-.9-4.9-2-10.8-3.1-16.6h-.8c4.6,22.8,1.8,44.6-8.2,65.5,10.1-14.6,14.6-30.9,15.5-48.3v11.6c2.2-14.6,1.6-29-2.7-43.2,4.8,9.4,6.1,19.6,7.4,30.7,2.6-17.3-6.6-45.5-17.1-54.1.4,1,.8,2.1,1.2,3.1v.2ZM163.8,174.4c-7.2,5.1-14.3,10.3-23,12.7-9.6,2.6-18.9,5.6-29.2,3.2-6.8-1.6-13.5-2.8-20-5.9-16.1-7.8-28.2-19.4-36.1-35.4-.9-1.8-1.5-3.8-2.2-5.7h.3c2.6,4.8,5.2,9.6,7.8,14.4l.6-.3c-2.1-4.5-4.2-8.9-6.3-13.4.2-.1.4-.2.6-.3,1.1,2.1,2.2,4.1,3.2,6.2l.3-.2c-1.9-5.7-3.8-11.3-5.6-17,.3-.1.6-.2.8-.3,3.4,12.7,9.2,23.9,19.2,32.8-14.3-18.3-19.3-38.8-15.5-61.6v8.2c1-4.2,1.4-8.4,2.4-12.5s2.4-8.2,3.7-12.2l.6.2c0,.8.2,1.5.3,2.9,8.8-24.1,33.1-39.8,43-41.3-3.2,1.8-6.2,3.5-10.2,5.7,4.2-1,7.3-1.8,10.5-2.5,0,.4.3.8.4,1.2-3.2,2.1-6.4,4.1-9.6,6.3s-6.3,4.6-9.4,6.9c.2.2.3.5.5.7.9-.6,1.9-1.1,2.8-1.7,12.2-6.7,23.9-13.5,38.7-14,15.9-.6,31,1.1,45.7,6.9,1.1.4,2.2.9,3.3,1.3.2-.4.3-.8.5-1.3-8.1-2.9-16.3-5.8-24.4-8.7v-.4c7.2,1.9,14.2,3.9,21.3,5.8-2.2-1.3-4.4-2.3-6.7-3.3-2-.8-4.1-1.5-6.1-2.3-4.1-1.7-8-4.4-12.3-5.1-6.3-1.1-12.7-1-19.1-1.3h-3.4v-.8c5.5-.3,10.9-.6,16.4-.9-12.5-1.5-24.9-.5-37,2.7,29-11.6,57.3-7.9,84.9,5-8.8-6.4-26-12.8-36.5-12.9-8.9-.2-17.8.8-26.7.6-12.5-.3-23.7,3.3-34.2,9.6-3.3,2-6.5,4.2-9.7,6.4.2.2.3.5.5.7,3.4-1.7,6.8-3.4,10.1-5.1-2.5,2.4-5.7,3.7-8.2,5.9-9.3,8.1-20.1,14.8-25.1,27-.6-1-1.1-1.7-1.8-2.9-7.7,13.5-11,27.5-11.5,42.3.6-7.9,1.3-15.8,1.9-23.8h-.2c-.9,4.5-1.7,9-2.6,13.5h-.3c.2-2.9.4-5.9.7-8.8-2.7,10.1-2.5,20.3-1.2,30.6h-1.2c-.5-8.2-1-16.5-1.5-23.9,0,.8-.3,2.4-.4,3.9-1.1,12.7,0,25.3,5.4,36.9,3.1,6.7,7.2,13.1,11.9,18.7,17.6,20.8,39.8,30.3,67.2,25,12.6-2.4,23.3-8.5,31.8-18.1v-.3ZM57.9,77.6c2.7-4.4,5.3-8.8,8.1-13.1,7.5-11.7,19.9-17.5,30.8-25.1.4-.3,1-.3,2.2-.6-1.8,1.3-3,2.2-4.2,3,0,.3.3.7.4,1,15.7-7.7,31.9-13,48.9-12.3-5.7,1-12.2,2.1-18.6,3.1,0,.3,0,.7,0,1,11-2.5,22-2.6,33.1-1.6s21.6,4,32,8c-12.9-7.1-26.8-11-41.7-12.5,1.5-.2,2.7-.3,3.9-.5-10.9-1.8-21.8-1.4-32.5.5-4.7.8-9.5,1.3-14.1,2.7-3.9,1.2-7.5,3.4-11.1,5.3-3.3,1.8-6.5,4-10.1,6.2.4-.9.6-1.4.9-1.8,0,0-.2,0-.7-.2-12.1,10-24.1,20.1-27.4,36.7v.2ZM169.4,131.6c.9,6.2-.9,12.7-2.4,19.4-1.8,7.8-5.1,14.3-11.2,19.4-7.3,6.1-15.6,10.2-24.8,11.8-6.3,1.1-12.7,1.2-17.5,1.6,13,2.4,26.5-.4,38.8-8.9-9.9,9.6-22.5,11.9-36,12.5,21.1,2.5,46.8-10.6,51.7-26.1-.5.2-1,.4-2.5,1,6.8-8.7,7.5-18.1,7.9-27.5.3-7.2-.5-14.4-4.3-20.9-3.5-6-7.9-10.9-13.6-14.8-1.3-.9-2.7-1.8-4-2.7l-.8.8c11.8,8.1,19.9,18.5,21.5,33-8.1-21.9-21.2-32.5-34.3-32.6,24.8,7.4,32.3,24.9,28.3,49,.3,0,.7,0,1-.1.8-5.3,1.5-10.5,2.1-15.1v.2ZM61.4,112.2c-2.2,17,.8,32.7,11.9,46.1,13.8,16.6,31.8,22.6,53.8,20-4.5,3.5-9,1-13.1,2.3,21.5,3.8,41-9.1,46.7-20.3-4.4,3.6-9.2,7.8-14.4,11.4-5.2,3.6-11.2,5.7-17.7,6.1,9.9-1.8,17.1-7.7,23.7-14.7,4.4-4.6,8.1-9.5,9.7-15.9-8,16.9-21.8,25-39.6,27.5,2.3-.1,4.7-.3,7.6-.5-11.1,3.9-21.8,1-31.5-1.8-14.3-4.1-24.9-14.4-31.2-28.4-4.5-10.1-6.3-20.7-5.9-31.8h0ZM122.6,160.7c15.1,2.6,31.7-10.5,32.5-28.9.4-9.2-2.9-16.9-11.1-21.7-2.2-1.3-4.8-2.1-7.3-3-10-3.5-21.1,1.8-24.6,11.6-4.6,12.9,5,24.5,18.3,22.1,4.1-.7,7.2-3,8.7-7,2.5-6.8-2.3-14-8.6-12.9,5.9,2.2,6,2.4,6.1,8.6,0,5.1-3,8.7-8,9.6-4.8.8-11.6-2.1-13.7-6-2.7-5-2.1-12.8,1.2-16.5-.5,1.9-1,4.1-1.6,6.2.6-.3.8-.7,1-1.1,4.4-12.5,18.8-16.7,29.3-8.5,8.3,6.4,11.1,14.5,7.9,24.8-1.6,5.4-4,10.1-8.2,14-6.2,5.7-13.4,8.4-22.1,8.8h.2ZM126.4,238.5c-26.7,3.5-51.9-1.5-76.1-12.7,32.2,21.1,78.9,23.5,106.4,6.2-11.4,4.3-23.1,7.6-35.5,7.7,1.7-.4,3.5-.8,5.2-1.2ZM203.7,28.2c-24.1-18.7-83.9-20.7-104.8-3.5,13-5.5,26.6-8.8,40.8-9.1-3.3.6-6.6,1.3-9.9,1.9,12.6-1.4,25.1-1,37.6.3,12.8,1.4,24.4,6.2,36.3,10.4ZM218.7,199.7c20.4-25.8,21.4-85,2.3-106.1,2.3,6,5.1,12.1,7,18.5,1.9,6.3,2.8,12.9,4.2,19.4-.3,0-.7.1-1,.2-.4-1.5-.8-3-1.2-4.5,3.3,25.3.2,49.5-11.2,72.4h-.1ZM34,161.3c-6.4-13.4-10.1-27.5-10.6-42.4.6,3.1,1.3,6.1,1.9,9.2-3.2-25.5-.1-49.9,11.3-73.1-20.4,32.2-21.7,75-2.7,106.4h.1ZM249.2,159.7c-.7-9.3-1.5-18.6-2.3-28h-1c3.1,27.9-.7,54.6-13.3,79.8,18.3-31.5,24.5-64.6,13-99.9,4,15.8,5.6,31.9,3.6,48h0ZM9.2,142.4c-1.1-7.5-2.8-16.2-3.4-25-.6-8.9,0-17.9.2-26.8h.4c.6,10.8,1.1,21.6,1.7,32.4h1.4c-1.9-13.7-1.2-27.4.9-41,2-13.6,6.6-26.3,12.4-38.7C3.6,74-1.4,113.6,9.2,142.4ZM200.2,190.1c6.7-10.4,11.8-21.5,12.6-34,.6-9.8-.5-19.6-1-29.4-.2-4.2.8-8.6-1.5-12.7-1.8-3.3-2.9-7-4.7-10.3-3-5.2-6.3-10.2-9.5-15.3-.5.2-.9.3-1.4.5,21.2,32.7,22.8,66.4,5.6,101.1h-.1ZM54.5,65.7c-6.5,10.7-11.5,22-12,34.6-.4,9.2,1,18.5.9,27.7,0,9.8,3.3,18.3,7.9,26.5,2.5,4.4,5.4,8.5,8.1,12.7.4-.1.7-.3,1.1-.4-20.6-32.7-22.5-66.3-6-101.1ZM156.1,109.3c-5.5-6.3-13.1-8.7-21.5-10.5-8.7-1.9-20.9,3.5-23.1,12.4,1.1-1.5,2.3-3,3.4-4.5-.7,1.8-1.8,3-2.8,4.4-5.9,8.6-6.5,23.7,3.5,30.1,5.7,3.6,13,4.1,17.2.7-13.7,4-22.4-4.4-23.5-11.6-1.5-9.1.9-19.7,11.4-25.6,7-3.9,14.6-5.1,22.2-2.4,4.7,1.7,9,4.6,13.3,6.9h-.1ZM183.5,53.9c14.7,6.8,24.6,19.7,37.3,29-10-12.7-20.2-25.3-37.3-29ZM69.7,200.7c-13.8-7-22.7-19.8-34.8-28.9,9.2,12.4,18.6,24.7,34.8,28.9ZM46.2,216.3c18.7,13.2,39.4,19.4,62.3,17.6-22.1-1.1-42.8-7.1-62.3-17.6ZM35.8,93.4c3.9-19.6,13.2-36.8,24.1-53.2-14,15-23.3,32.1-24.1,53.2ZM142.3,22.5c23.1-.5,44.9,4.9,65.5,15.2-20-13-41.8-18.5-65.5-15.2ZM196.1,213.9c13.4-14.3,22.6-30.5,23.5-50.6-4,18.7-13.3,34.8-23.5,50.6ZM151.5,41.7c21.4,1,39.4,10.9,57,21.9-16.3-14.6-34.7-23.6-57-21.9ZM168.6,201.8c-16.9,8.8-34.3,16.1-53.9,15.8,20.3,2.6,38.2-2.7,53.9-15.8ZM226.2,141.1c.3,10.8-.7,21.5-3.9,31.8-3.2,10.1-7,20.1-9.9,28.2,10.5-14.3,17.5-38.9,13.8-60h0ZM46.8,190.9c11,12.7,38.2,25.4,48.2,22.6-18-3.6-33.2-12.7-48.2-22.6ZM43.5,53.4c-11.9,18.3-17.1,38.3-14.4,60.1,0-21.2,5.1-41.1,14.4-60.1ZM68.1,52.7c-12.4,14-21.1,29.7-20.7,49.2,2.6-18.2,11-33.9,20.7-49.2ZM58.4,205.3c17.6,11.8,36.7,17.3,57.9,14.4-20.6.3-39.7-5.2-57.9-14.4ZM144.7,75.7c-20.7-4.1-40.5,5.4-48.8,20.5,12.7-15.2,28.9-22.3,48.8-20.5ZM100.4,69.3c15.5-9,32.2-13,50.1-11.1-18.3-3.4-35.2-.5-50.1,11.1ZM190.4,145.4c2.8-16.6-.5-31.6-11.5-44.5,9,13.5,12.7,28.4,11.5,44.5ZM64.9,109.9c-2.9,16.7.7,31.9,11.4,45.1-8.8-13.7-12.4-28.8-11.4-45.1ZM101.2,84.8c5.6-2.9,11.6-7,18.3-9.4,6.6-2.4,13.8-3.1,20.1-4.4-14.6-.9-27.9,3.7-38.3,13.8h-.1ZM176.7,139.2c2.7-15.4-5.2-30.8-12.9-35.7,9,10.5,13.4,22.2,12.9,35.7ZM100.6,110.8c6-11.9,15.3-19.5,28.5-22.2-13.1.9-25.7,10.7-28.5,22.2Z"/>
  <path class="cls-2" d="M37.6,146.6c-.8-4.2-1.8-8.4-2.5-12.7-1.7-10.4-1.7-20.9,0-32.3v12.5c.9-17.2,5.5-33.2,15.1-47.6-9.9,21-12.3,42.8-8.6,65.6-1.1-5.5-2.2-10.9-3.3-16.6,0,8.5,1.2,16.8,3.9,24.7,3.9,11.3,7,23,14.5,32.9,5.3,7.1,12.2,12,19.4,16.6,1.8,1.2,3.8,2.1,6.2,3.4-1.6.1-2.5.2-4.1.3,8.9,4.9,17.9,7.3,27.2,9.5-5.2-.6-10.4-1.3-15.9-1.9,13.3,5,26.8,4.8,40.2,2.5,13.4-2.3,25.2-8.5,36.7-15.5-11.6,11.1-26.2,16.2-41.4,20,0,.3,0,.5.2.8,4.9-1.1,9.8-1.9,14.6-3.2,6.3-1.7,12.9-3,18.8-5.8,5.7-2.7,11.4-6.4,15.6-11,5.3-5.8,9.2-13,13.7-19.6.5-.7.8-1.5,1.2-2.5.4.7.6,1,.8,1.4.3,0,.6.1.9.2,1.9-7.7,3.8-15.4,5.5-22.2v5.4h.4c0-.4.2-.8.3-1.2,2.9-20.4-1.5-39.1-13.8-55.7-1.1-1.5-2.1-2.9-3.4-4.7,6.7,4.6,12.9,13.9,19.5,27.7-.8-2.3-1.5-4.7-2.5-6.9-.9-2.3-2.1-4.5-2.6-7.1,1.3,2.2,2.5,4.5,3.8,6.7.2,0,.4-.2.6-.3-2.2-4.4-4.5-8.7-6.7-13.1l.6-.3c2.8,4.8,5.7,9.7,8.5,14.5l.6-.3c-2.4-4.6-4.4-9.4-7.2-13.7-8.3-12.2-19.5-20.4-33-26.4-7.5-3.4-15-3.9-23.3-4.8,1.3-.3,2-.4,2.8-.6-8.6-.8-16.7,1.8-24.8,3.8h0c0-.5.2-.9.6-2.7-8.2,4.9-15.7,9.4-22.8,13.6,7.3-12.8,31.9-24.3,53.6-19.8-6.9.4-14.2.8-21.5,1.3v.9c2.1,0,4.2.2,6.3,0,14.9-1.5,29.1,1.4,41.3,9.8,13.6,9.4,24.9,21.6,30.4,37.4,4.2,12.2,5.8,25.3,2.9,39.2,0-4.7.2-8.7,0-12.6-.2-4.1-.9-8.1-1.7-12.2.8,10,1.1,20-1.6,29.8.2-2.6.4-5.1.6-7.7h-.3c-.8,4.1-1.7,8.2-2.7,13,.6-8.9,1.2-17.1,1.7-25.2-.2,10.4-1.6,20.5-5.4,30.3-2.2,5.8-5.1,11.1-10.2,14.8-.4.3-.6.7-.8,1.1-10,13-22.5,23-37.7,29.4-12,5-24.6,6-37.4,4.9-1.6-.1-3.1-.4-4.7-1h16.7v-.2c-5.9-.4-11.9-.3-17.7-1.3-5.6-1-11.1-2.8-16.3-4.9-5.3-2.2-10.2-5.2-15.1-8.2,4.8,1.8,9.5,3.6,14.3,5.4,0-.2,0-.3.2-.5-6-2.8-11.9-5.6-17.9-8.5,0-.2.2-.5.3-.7,4.8,2,9.6,4,14.3,6,0-.1,0-.3.2-.4-4.7-2.5-9.5-4.8-14-7.6-4.4-2.8-8.5-6.1-12.8-9.2.2-.3.3-.5.5-.8,1.7,1.1,3.4,2.2,5.3,3.4,0-.5,0-.7,0-.8-11.7-9.2-19.5-21.3-25.3-34.9-.3-.6-.7-1.1-1.1-1.7-.2-.6-.4-1.2-.6-1.9h0ZM131.7,205.5v-.9c-4.2.5-8.4,1.1-12.7,1.5-4.3.4-8.6.5-11.7.6,7.4,1.2,15.9.7,24.4-1.3h0Z"/>
  <path class="cls-2" d="M163.8,174.4c-8.5,9.6-19.2,15.7-31.8,18.1-27.4,5.3-49.6-4.2-67.2-25-4.7-5.6-8.8-12.1-11.9-18.7-5.4-11.6-6.5-24.2-5.4-36.9,0-1.6.4-3.1.4-3.9.5,7.5,1,15.7,1.5,23.9h1.2c-1.3-10.3-1.5-20.5,1.2-30.6-.2,2.9-.4,5.9-.7,8.8h.3c.9-4.5,1.7-9,2.6-13.5h.2c-.6,7.9-1.3,15.8-1.9,23.8.5-14.9,3.8-28.9,11.5-42.3.7,1.2,1.2,1.9,1.8,2.9,4.9-12.3,15.7-19,25.1-27,2.5-2.2,5.7-3.5,8.2-5.9-3.4,1.7-6.8,3.4-10.1,5.1-.2-.2-.3-.5-.5-.7,3.2-2.1,6.4-4.4,9.7-6.4,10.5-6.3,21.7-9.9,34.2-9.6,8.9.2,17.8-.7,26.7-.6,10.5.2,27.8,6.5,36.5,12.9-27.7-12.8-55.9-16.6-84.9-5,12.2-3.2,24.5-4.2,37-2.7-5.5.3-10.9.6-16.4.9v.8h3.4c6.4.4,12.9.2,19.1,1.3,4.3.8,8.2,3.4,12.3,5.1,2,.8,4.1,1.5,6.1,2.3,2.3.9,4.6,2,6.7,3.3-7.1-1.9-14.1-3.9-21.2-5.8v.4c8.1,2.9,16.2,5.8,24.3,8.7-.2.4-.3.8-.5,1.3-1.1-.4-2.2-.9-3.3-1.3-14.7-5.8-29.8-7.5-45.7-6.9-14.8.5-26.6,7.3-38.7,14-1,.5-1.9,1.1-2.8,1.7-.2-.2-.3-.5-.5-.7,3.1-2.3,6.2-4.7,9.4-6.9,3.1-2.2,6.4-4.2,9.6-6.3,0-.4-.3-.8-.4-1.2-3.1.8-6.3,1.5-10.5,2.5,3.9-2.2,7-3.9,10.2-5.7-9.9,1.6-34.2,17.3-43,41.3-.2-1.3-.2-2.1-.3-2.9l-.6-.2c-1.2,4.1-2.7,8.1-3.7,12.2s-1.4,8.3-2.4,12.5v-8.2c-3.8,22.8,1.2,43.3,15.5,61.6-10-8.9-15.8-20.2-19.2-32.8-.3.1-.6.2-.8.3,1.9,5.7,3.8,11.3,5.6,17l-.3.2c-1.1-2.1-2.2-4.1-3.2-6.2-.2.1-.4.2-.6.3,2.1,4.5,4.2,8.9,6.3,13.4l-.6.3c-2.6-4.8-5.2-9.6-7.8-14.4h-.3c.7,1.9,1.3,3.9,2.2,5.7,7.9,16,20,27.5,36.1,35.4,6.5,3.2,13.2,4.3,20,5.9,10.3,2.5,19.6-.5,29.2-3.2,8.7-2.4,15.8-7.6,23-12.7v.3ZM134.9,48.8v.3h12.9v-.9c-4.3.2-8.6.4-12.9.6Z"/>
  <path class="cls-2" d="M132.9,125.8c1.7,2.6,1.8,5.2-.4,7.5-2.4,2.5-5.4,3-8.5,1.8-7.2-2.7-8.5-12.6-2.5-18.3,7.9-7.5,22.6-3.3,25.4,7.3,0,.3,0,.7,0,0-2.3-2.4-4.7-5.5-7.8-7.8-3.4-2.5-7.5-2.3-11.6-1.3-4.7,1.2-7.6,4.3-7.8,9.2,2.1-4.3,4.7-7.5,9.4-8.1,6.6-.8,12.2,2.5,14.7,8.7,4.3,10.7-1.5,23.7-17.5,25.1-13.9,1.2-27.9-12.4-26-26.4,1,3.2,1.6,7.5,3.5,11.1,1.9,3.7,5.1,6.8,8.3,9.9-16.1-19.3-13.5-35.7,6.9-49.8-1.8.9-3.5,1.7-5.3,2.6,12.5-8.2,25.5-12.1,40.4-5.2-.7-1-1.1-1.6-1.9-2.7,13.8,5.3,21.7,15.6,28.1,28-1.1-6-6.3-14.6-14.5-24.5,16.6,8.3,27,35.2,21.2,55.8v-21.8h-.7c-.5,5.8-.8,11.7-1.4,17.5-1.1,10.3-5.3,19.4-10.7,28.3-8.2,13.7-20.6,21.4-35.2,26.1-9,2.9-18.5,2.7-26.6,1.8,5.6-.6,12.5-1,19.3-2.1,4-.7,7.9-2.6,11.8-4,4.5-2.7,9.1-5.4,13.6-8.1,7.5-5.8,14.5-12.1,19-20.7,6.7-12.8,8.5-26.2,5.6-40.3-.2-.8-.5-1.5-.8-2.5v14.4c-.4-9.8-2.4-19.2-7.9-27.4-3.6-5.3-8.1-9.6-14.4-11.8-4.9-1.7-9.6-4.2-14.4-6.2-1-.4-2.2-.4-3.3-.2,3.2,1.1,6.4,2.1,9.5,3.2-8-1.8-15.9-3.3-24.9-.9,2,.2,3.1.3,4.9.5-2,.5-3.3.8-4.6,1.2-16.2,4.6-25.7,23-19.3,37.4,3.9,8.8,11.8,14.5,19.8,14.2,7.7-.3,15-6,17-13.4,2-7.2-4.9-16.3-12.3-16.2-4.1,0-7.1,2.1-8.8,5.6-1.6,3.1-.3,5.8,2.2,8.2,2.6,2.5,5.2,2.8,7.1.1,1.7-2.3.9-4.1-2.6-6,1.3,0,2.6.2,3.9.3v-.2Z"/>
  <path class="cls-2" d="M208.9,88.7c-.4-1-.8-2.1-1.2-3.1,10.5,8.6,19.7,36.8,17.1,54.1-1.3-11.1-2.6-21.4-7.4-30.7,4.3,14.2,4.9,28.6,2.7,43.2v-11.6c-.9,17.4-5.5,33.7-15.5,48.3,10-20.9,12.8-42.7,8.2-65.5h.8c1.1,5.8,2.2,11.6,3.1,16.6.9-5.9-1.2-18.4-5.2-29.3-2.5-6.9-5-13.8-7.5-20.7-.2-.5-.6-1-.9-1.4-7.8-11.6-17.7-20.6-30.7-25.8-.4-.2-.8-.4-1.1-1.2,1,0,2,.2,2.9.4,1,.2,2,.4,3,.4-9.2-5.1-19.2-7.4-30-8.6,14.3-2.5,38.4,6.9,49.7,19.4-3.9-2.5-7.4-4.7-10.9-6.9,8.3,7,16.7,13.8,22.2,23.4,1.6,2.9,3.1,5.9,4.7,8.8.3-.2.6-.4.9-.5-1.7-3-3.4-6-5-9.1v-.2Z"/>
  <path class="cls-2" d="M98.9,142.8c-10-13-7.3-26.4-1.3-40.1-.6,1.1-1.3,2.1-1.8,3.2-.6,1.2-1.2,2.4-2.4,3.4,0-.6,0-1.3.3-1.9,5-13.7,15.2-21.9,28.5-26.9,11.6-4.4,23.2-4.3,34.9-.4,15.6,5.2,26.9,15.3,33.3,30.3,3.5,8.1,4.6,16.9,4.2,25.8,0,2.3-.3,4.6-.6,6.9.1-8.9-.7-17.7-3.9-26.1-1.1-2.9-2.3-5.7-3.6-8.5-5.9-12.4-15.9-20.8-28.4-25.5-6.1-2.3-13.3-3.1-19.9-2.5-8.1.7-16.6,1.8-23.7,6.5-7.9,5.2-13.1,12.7-17.1,21.1,9.9-15.3,22.9-24.7,40.4-22.6-4.5.9-10.9,1.3-16.7,3.4-17.4,6.2-27.4,23.3-23.7,40.1,2.2,10,3.9,15.8,19.2,23.7-5.7-.9-9.9-4.4-14-8.2-.2.7-.4,1.1-.5,1.5-1-1-2.1-2-3.1-3v-.2ZM95.8,135.1c.3,0,.5-.1.8-.2-.9-3.6-1.8-7.2-2.7-10.9-.3,0-.7.2-1,.3,1,3.6,1.9,7.2,2.9,10.8Z"/>
  <path class="cls-2" d="M57.9,77.6c3.3-16.6,15.3-26.8,27.4-36.7.5,0,.6.2.7.2-.2.5-.4.9-.9,1.8,3.6-2.2,6.7-4.4,10.1-6.2,3.6-2,7.2-4.1,11.1-5.3,4.5-1.4,9.4-1.9,14.1-2.7,10.8-1.9,21.6-2.3,32.5-.5-1.2.2-2.5.3-3.9.5,14.9,1.5,28.7,5.4,41.7,12.5-10.3-4-20.9-7-32-8s-22.1-.9-33.1,1.6c0-.3,0-.7,0-1,6.4-1.1,12.9-2.2,18.6-3.1-16.9-.8-33.2,4.5-48.9,12.3,0-.3-.3-.7-.4-1,1.2-.9,2.4-1.7,4.2-3-1.1.3-1.8.3-2.2.6-10.9,7.6-23.2,13.4-30.8,25.1-2.8,4.3-5.4,8.7-8.1,13.1v-.2Z"/>
  <path class="cls-2" d="M98.6,162.4c.7.9,1.5,1.9,2.8,3.6-10.9-4.9-17.3-13.3-23.7-21.8,1.9,6.5,5.5,12.1,10.3,17.5-14-7.6-25.8-33.4-19.6-55v21h.7c.5-5.5.7-11,1.5-16.5,3.5-25.1,16.7-43.6,40-53.4,9.6-4,20.6-5.1,32.4-3.7-4.3.4-7.6.6-10.9,1.1-3.4.5-6.8,1.1-10.1,2-23.6,6.1-39.8,20.1-47.4,43.7-3.7,11.5-3.1,22.6.4,33.9-.4-5.7-.8-11.4-1.2-17.1,1,8.3,2.3,16.4,6.2,23.9,1.4,2.7,3.3,5.1,5,7.6,3.4,5.6,8.2,9.6,13.6,13v.2Z"/>
  <path class="cls-2" d="M169.4,131.6c-.6,4.5-1.4,9.8-2.1,15.1-.3,0-.7,0-1,.1,4-24.1-3.5-41.5-28.3-49,13,0,26.2,10.7,34.3,32.6-1.6-14.5-9.7-24.9-21.5-33l.8-.8c1.3.9,2.7,1.8,4,2.7,5.7,3.8,10.1,8.8,13.6,14.8,3.8,6.5,4.6,13.7,4.3,20.9-.4,9.4-1.2,18.8-7.9,27.5,1.4-.6,1.9-.8,2.5-1-4.9,15.4-30.6,28.6-51.7,26.1,13.5-.6,26.1-2.9,36-12.5-12.3,8.5-25.8,11.2-38.8,8.9,4.8-.4,11.2-.5,17.5-1.6,9.3-1.6,17.6-5.8,24.8-11.8,6.1-5.1,9.5-11.6,11.2-19.4,1.5-6.7,3.2-13.2,2.4-19.4v-.2Z"/>
  <path class="cls-2" d="M98.6,162.4c-5.4-3.4-10.2-7.5-13.6-13,.8,0,1.7.1,2.5.2.7.6,1.4,1.2,2.2,1.8,5.3,5.4,11.7,8.8,19,10.7-1.2-.7-2.3-1.4-3.6-2.1,5.2,1.1,10.2,2.8,15.3,3.2,9.3.7,18.9-.4,26-6.3,10.5-8.7,15.7-19.6,11.1-33.5-3.3-10.2-10.3-16.2-20.2-19.2,5.4.2,9.8,2.9,14.3,5.7-.3-.4-.6-.8-.9-1.3,4.3,1.7,9.4,8.4,11.3,14.9,3.9,13.2-3.2,32.7-15,39.7-7.1,4.2-14.8,7.9-23.7,6.8,14.4-1.3,25.6-7.8,32.9-20.3-1.1,1.3-2,2.7-3.2,3.9s-2.8,2-4,3.2c-7,6.9-15.4,10.2-25.1,9.9-5-.2-9.8,2.8-14.9.2-3.3-1.7-6.9-2.9-10.4-4.4h0Z"/>
  <path class="cls-2" d="M61.4,112.2c-.4,11.1,1.4,21.7,5.9,31.8,6.3,14,16.8,24.3,31.2,28.4,9.7,2.8,20.4,5.7,31.5,1.8-2.9.2-5.2.3-7.6.5,17.8-2.5,31.7-10.6,39.6-27.5-1.7,6.4-5.4,11.3-9.7,15.9-6.6,7-13.8,12.9-23.7,14.7,6.5-.4,12.5-2.5,17.7-6.1s10-7.9,14.4-11.4c-5.7,11.2-25.2,24.1-46.7,20.3,4.1-1.3,8.6,1.2,13.1-2.3-22.1,2.6-40.1-3.4-53.8-20-11.1-13.4-14-29.1-11.9-46.1Z"/>
  <path class="cls-2" d="M194.5,189c-4.1,4.8-7.7,10.1-12.2,14.3-15.1,14-33.1,22.1-53.6,24.2-22.4,2.3-43.4-2.7-63.3-13.1-1-.5-2-1.1-3-1.7,0,0-.2-.3-.5-.8,22.2,10.6,45.1,14,69.1,10.4-6.1,1-12.2,2.1-18.6,3.1,15.8,0,30.8-2.5,44.5-9.8,8.3-4.5,16.8-9.1,23.9-15.2,5.8-5,9.7-12.3,14.4-18.7.7-.9,1.1-1.9,2.4-2.6-.6,2.5-1.3,5.1-1.9,7.6l-1.2,2.3h0Z"/>
  <path class="cls-2" d="M89.8,137.8c-.9-1.3-2.1-2.4-2.8-3.8-1.1-2.1-2-4.3-3.2-6.3,1.9,12.6,8.7,22.3,18.7,30.1-.2.2-.4.5-.6.7-1.2-.9-2.6-1.6-3.7-2.6-13.7-10.8-18.1-25.1-15.4-41.8.9-5.8,3.2-11.3,4.6-17.1,3.7-14.8,16.1-20.9,27.6-28,.3-.2.8,0,1.3.2h0c.5.3,1.1.9,1.5.8,4-.7,8-1.8,12.1-2.2,4-.4,8.1,0,12.2,0-8.3,0-16.4,1.2-24.2,4.1-15.8,5.9-25.9,16.8-29.8,33.4-1.7,7.2-2.9,14.3-1.6,21.7.2,1,.9,1.9,1.4,2.9.7,2.7,1.4,5.4,2.1,8.1l-.2-.3Z"/>
  <path class="cls-2" d="M122.6,160.7c8.6-.4,15.9-3.1,22.1-8.8,4.2-3.9,6.5-8.6,8.2-14,3.1-10.2.3-18.3-7.9-24.8-10.5-8.2-25-4-29.3,8.5,0,.4-.4.8-1,1.1.5-2.1,1.1-4.3,1.6-6.2-3.3,3.7-4,11.5-1.2,16.5,2.2,3.9,8.9,6.9,13.7,6,5-.9,8-4.5,8-9.6s-.2-6.3-6.1-8.6c6.3-1.1,11.1,6.1,8.6,12.9-1.5,4-4.6,6.2-8.7,7-13.3,2.4-22.9-9.2-18.3-22.1,3.5-9.8,14.6-15.1,24.6-11.6,2.5.9,5,1.7,7.3,3,8.2,4.9,11.5,12.5,11.1,21.7-.8,18.3-17.4,31.4-32.5,28.9h-.2Z"/>
  <path class="cls-2" d="M126.4,238.5c-1.7.4-3.5.8-5.2,1.2,12.4-.1,24-3.4,35.5-7.7-27.6,17.3-74.2,14.9-106.4-6.2,24.2,11.2,49.5,16.2,76.1,12.7Z"/>
  <path class="cls-2" d="M203.7,28.2c-11.9-4.2-23.6-9.1-36.3-10.4-12.6-1.3-25-1.8-37.6-.3,3.3-.6,6.6-1.3,9.9-1.9-14.2.4-27.7,3.7-40.8,9.1,20.9-17.2,80.7-15.2,104.8,3.5h0Z"/>
  <path class="cls-2" d="M218.7,199.7c11.4-23,14.6-47.1,11.2-72.4.4,1.5.8,3,1.2,4.5.3,0,.7-.1,1-.2-1.4-6.5-2.3-13.1-4.2-19.4-1.9-6.4-4.7-12.5-7-18.5,19.1,21.1,18.1,80.3-2.3,106.1h.1Z"/>
  <path class="cls-2" d="M34,161.3c-19-31.4-17.7-74.2,2.7-106.4-11.4,23.2-14.5,47.6-11.3,73.1-.6-3.1-1.3-6.1-1.9-9.2.5,14.9,4.2,29,10.6,42.4h-.1Z"/>
  <path class="cls-2" d="M249.2,159.7c2-16.2.3-32.2-3.6-48,11.5,35.3,5.4,68.4-13,99.9,12.6-25.2,16.4-51.9,13.3-79.8h1c.8,9.3,1.5,18.7,2.3,28h0Z"/>
  <path class="cls-2" d="M9.2,142.4C-1.4,113.6,3.6,74,22.9,43.2c-5.8,12.4-10.4,25.1-12.4,38.7s-2.8,27.3-.9,41h-1.4c-.6-10.8-1.1-21.6-1.7-32.4h-.4c0,8.9-.8,17.9-.2,26.8.5,8.8,2.3,17.6,3.4,25h-.1Z"/>
  <path class="cls-2" d="M200.2,190.1c17.2-34.7,15.7-68.4-5.6-101.1.5-.2.9-.3,1.4-.5,3.2,5.1,6.5,10.1,9.5,15.3,1.9,3.3,2.9,7,4.7,10.3,2.3,4.1,1.3,8.4,1.5,12.7.5,9.8,1.5,19.7,1,29.4-.7,12.4-5.9,23.6-12.6,34h.1Z"/>
  <path class="cls-2" d="M54.5,65.7c-16.5,34.8-14.6,68.4,6,101.1-.4.1-.7.3-1.1.4-2.7-4.2-5.7-8.3-8.1-12.7-4.6-8.2-8-16.7-7.9-26.5,0-9.2-1.3-18.5-.9-27.7.5-12.6,5.4-24,12-34.6Z"/>
  <path class="cls-2" d="M156.1,109.3c-4.3-2.3-8.5-5.3-13.3-6.9-7.6-2.7-15.2-1.5-22.2,2.4-10.4,5.9-12.9,16.5-11.4,25.6,1.2,7.1,9.9,15.5,23.5,11.6-4.2,3.4-11.5,2.9-17.2-.7-10-6.4-9.5-21.5-3.5-30.1,1-1.4,2.1-2.7,2.8-4.4-1.1,1.5-2.3,3-3.4,4.5,2.2-8.8,14.4-14.2,23.1-12.4,8.4,1.8,16,4.2,21.5,10.5h0Z"/>
  <path class="cls-2" d="M98.9,142.8c1,1,2.1,2,3.1,3,9.3,8.6,19.9,11.9,32.2,7.5,1.2-.4,2.3-1.3,3.4-2,1-.4,2-.9,3.1-1.3.9-.4,2-.6,2.7-1.2,11.7-10.4,10.2-27.5-3.1-35.9-.2,0-.3-.3-.5-.5,5.4.7,10.6,6.4,12.1,13.2,3.7,16.8-8.6,29.7-22.7,31.7-12.1,1.7-22.2-2.7-30.1-12.1-1.2-1.4-1.2-1.5,0-2.4h-.2Z"/>
  <path class="cls-2" d="M183.5,53.9c17.1,3.8,27.3,16.3,37.3,29-12.7-9.4-22.6-22.3-37.3-29Z"/>
  <path class="cls-2" d="M37.6,146.6c.2.6.4,1.2.6,1.9,2.8,7,5.6,14.1,8.4,21-12.1-15.3-17.6-32.9-16.1-52.6,1.5,10.1,2.5,20.4,7.1,29.8h0Z"/>
  <path class="cls-2" d="M69.7,200.7c-16.1-4.2-25.5-16.5-34.8-28.9,12,9.1,20.9,21.9,34.8,28.9Z"/>
  <path class="cls-2" d="M46.2,216.3c19.5,10.5,40.2,16.6,62.3,17.6-22.9,1.8-43.5-4.5-62.3-17.6Z"/>
  <path class="cls-2" d="M35.8,93.4c.8-21,10.1-38.2,24.1-53.2-10.9,16.4-20.1,33.6-24.1,53.2Z"/>
  <path class="cls-2" d="M142.3,22.5c23.8-3.3,45.5,2.2,65.5,15.2-20.7-10.3-42.4-15.7-65.5-15.2Z"/>
  <path class="cls-2" d="M196.1,213.9c10.1-15.8,19.5-31.9,23.5-50.6-.9,20.1-10.1,36.3-23.5,50.6Z"/>
  <path class="cls-2" d="M151.5,41.7c22.3-1.7,40.7,7.2,57,21.9-17.6-11-35.6-20.9-57-21.9Z"/>
  <path class="cls-2" d="M168.6,201.8c-15.6,13.2-33.6,18.4-53.9,15.8,19.6.2,36.9-7.1,53.9-15.8Z"/>
  <path class="cls-2" d="M226.2,141.1c3.7,21.1-3.3,45.7-13.8,60,2.9-8.1,6.7-18.1,9.9-28.2,3.2-10.3,4.2-21,3.9-31.8h0Z"/>
  <path class="cls-2" d="M46.8,190.9c15,9.9,30.2,19,48.2,22.6-10,2.8-37.2-10-48.2-22.6Z"/>
  <path class="cls-2" d="M43.5,53.4c-9.3,19-14.4,38.9-14.4,60.1-2.7-21.8,2.5-41.8,14.4-60.1Z"/>
  <path class="cls-2" d="M68.1,52.7c-9.7,15.3-18.1,31-20.7,49.2-.4-19.5,8.3-35.2,20.7-49.2Z"/>
  <path class="cls-2" d="M194.5,189l1.2-2.3c5.6-8,8.7-17,11-26.4.4-1.6.7-3.3,1.1-5.1,1.9,13.4-7.5,33.5-20.5,47,2.5-4.5,4.9-8.8,7.3-13.2h-.1Z"/>
  <path class="cls-2" d="M58.4,205.3c18.2,9.2,37.3,14.7,57.9,14.4-21.2,2.9-40.4-2.6-57.9-14.4Z"/>
  <path class="cls-2" d="M89.8,137.8c-.7-2.7-1.4-5.4-2.1-8.1-2.4-8-1-15.7,1.9-23.3-2.2,10.7-2.7,21.3,2.2,31.5,4.9,10.1,12.7,16.8,23.5,20.3-.2.4-.5.8-.7,1.2-3.8-1.9-7.8-3.4-11.2-5.7-5.8-4-10.6-9.1-13.5-15.8h-.1Z"/>
  <path class="cls-2" d="M157.2,186.5c-4.5,2.7-9.1,5.4-13.6,8.1-6.1,1.3-12.2,3.1-18.3,3.6-6.4.5-12.9-.2-19.3-1,8.9.5,17.8.9,26.5-1.9,1.7-.3,3.4-.5,5.2-.8,5.8-2.5,11.6-5.1,17.4-7.5.7-.3,1.5-.3,2.2-.5h0Z"/>
  <path class="cls-2" d="M144.7,75.7c-19.9-1.8-36.1,5.3-48.8,20.5,8.3-15.1,28.1-24.6,48.8-20.5Z"/>
  <path class="cls-2" d="M100.4,69.3c14.9-11.6,31.9-14.4,50.1-11.1-18-1.9-34.6,2-50.1,11.1Z"/>
  <path class="cls-2" d="M190.4,145.4c1.2-16.2-2.5-31-11.5-44.5,11,13,14.3,28,11.5,44.5Z"/>
  <path class="cls-2" d="M64.9,109.9c-1,16.3,2.5,31.4,11.4,45.1-10.7-13.2-14.2-28.3-11.4-45.1Z"/>
  <path class="cls-2" d="M137.6,194.6c-1.7.3-3.4.5-5.2.8-8.7,1.3-17.4,1.7-26.2-.5,16.1,1.9,31.3-.7,45.6-8.4,0,.3.2.5.3.8-3.7,1.8-7.5,3.5-11.2,5.3-1.2.6-2.3,1.3-3.4,2h0Z"/>
  <path class="cls-2" d="M101.2,84.8c10.4-10.1,23.7-14.7,38.3-13.8-6.3,1.3-13.5,2-20.1,4.4s-12.7,6.5-18.3,9.4h0Z"/>
  <path class="cls-2" d="M140.7,150c-1,.4-2,.9-3.1,1.3-2.8.8-5.6,1.6-9.2,2.6,4.1-2.1,8-3.4,10.8-5.8,2.8-2.4,5.1-5.8,6.9-9.2,1.9-3.5,2.8-7.4.8-11.5.3,0,.6,0,.9,0,.4,1.4,1,2.7,1,4.1.1,5.9-2.1,10.9-5.9,15.3-.9,1-1.5,2.2-2.2,3.4h0Z"/>
  <path class="cls-2" d="M132.9,125.8c-1.3,0-2.6-.2-3.9-.3,0,.5,0,1,.1,1.3.7,1.3,1.4,2.9-.7,3.1-1.1.1-3.1-1.2-3.4-2.3-.4-1.2.3-3.7,1.2-4.1,1.8-.8,4.3-1.1,6.1-.5,1.6.5,2.6,2.7,3.9,4.1-.2.2-.4.4-.6.6-.9-.6-1.8-1.3-2.6-1.9h0Z"/>
  <path class="cls-2" d="M89.7,151.4c-.7-.6-1.4-1.2-2.2-1.8-7.3-9.9-10.7-20.8-8.7-33.2v4.3c0,1.5,0,3,.3,4.4,1.1,9.1,4.6,17.1,9.9,24.5.4.5.4,1.2.6,1.8h0Z"/>
  <path class="cls-2" d="M176.7,139.2c.5-13.5-3.9-25.2-12.9-35.7,7.7,4.9,15.6,20.3,12.9,35.7Z"/>
  <path class="cls-2" d="M100.6,110.8c2.8-11.5,15.4-21.3,28.5-22.2-13.2,2.7-22.5,10.3-28.5,22.2Z"/>
  <path class="cls-1" d="M208.9,88.7c1.7,3,3.4,6,5,9.1-.3.2-.6.4-.9.5-1.6-2.9-3.1-5.9-4.7-8.8.2-.3.4-.5.6-.8h0Z"/>
  <path class="cls-1" d="M131.7,205.5c-8.5,2-17.1,2.5-24.4,1.3,3-.2,7.4-.3,11.7-.6,4.2-.4,8.5-1,12.7-1.5v.9h0Z"/>
  <path class="cls-1" d="M134.9,48.8c4.3-.2,8.6-.4,12.9-.6v.9h-12.9v-.3Z"/>
  <path class="cls-1" d="M95.8,135.1c-1-3.6-1.9-7.2-2.9-10.8.3,0,.7-.2,1-.3.9,3.6,1.8,7.2,2.7,10.9-.3,0-.5.1-.8.2h0Z"/>
</svg>